<?xml version="1.0" encoding="UTF-8" standalone="no"?>
<!DOCTYPE svg PUBLIC "-//W3C//DTD SVG 1.1//EN" "http://www.w3.org/Graphics/SVG/1.1/DTD/svg11.dtd">
<svg width="100%" height="100%" viewBox="0 0 1729 1207" version="1.1" xmlns="http://www.w3.org/2000/svg" xmlns:xlink="http://www.w3.org/1999/xlink" xml:space="preserve" xmlns:serif="http://www.serif.com/" style="fill-rule:evenodd;clip-rule:evenodd;stroke-miterlimit:10;">
    <g transform="matrix(1,0,0,1,-252.003,-230.773)">
        <g id="Direita" transform="matrix(1.8807,0,0,1.8807,-1565.54,-455.599)">
            <g transform="matrix(1,0,0,1,337.109,-281.303)">
                <g transform="matrix(1,0,0,1,1062.59,964.767)">
                    <path d="M0,-66.183C8.432,-69.49 12.647,-71.202 21.073,-74.701C16.644,-54.783 12.473,-34.845 9.594,-14.633C18.686,-15.045 23.232,-15.353 32.325,-16.132C31.975,-6.362 31.805,-1.431 31.479,8.518C16.582,7.24 1.572,7.502 -13.363,7.276C-8.913,-17.211 -4.459,-41.698 0,-66.183" style="fill:rgb(242,98,33);fill-rule:nonzero;"/>
                </g>
                <g transform="matrix(1,0,0,1,1130.19,914.688)">
                    <path d="M0,35.863C-0.416,22.72 -0.805,9.577 -1.166,-3.567C-3.879,9.462 -6.662,22.474 -9.521,35.471C-5.715,35.636 -3.811,35.715 0,35.863M-38.888,63.345C-27.537,33.133 -18.933,2.345 -11.907,-29.14C-2.715,-32.541 6.458,-35.994 15.619,-39.476C16.343,-2.399 20.202,34.471 24.937,71.225C16.006,73.129 11.53,73.963 2.563,75.339C2.057,67.517 1.81,63.638 1.326,55.946C-4.399,56.166 -7.263,56.244 -12.988,56.329C-14.7,63.476 -15.561,67.018 -17.292,74.037C-25.978,69.645 -30.298,67.495 -38.888,63.345" style="fill:rgb(242,98,33);fill-rule:nonzero;"/>
                </g>
                <g transform="matrix(1,0,0,1,1178.53,995.761)">
                    <path d="M0,-124.951C-0.323,-98.727 -0.157,-72.5 0.04,-46.276C3.47,-71.527 6.833,-96.804 9.223,-122.179C18.321,-122.038 22.884,-121.883 32.028,-121.431C24.116,-81.958 16.755,-42.388 9.915,-2.715C0.488,-1.547 -9.02,-0.63 -18.497,0C-17.923,-38.464 -19.856,-76.943 -22.151,-115.325C-13.275,-119.128 -8.845,-121.064 0,-124.951" style="fill:rgb(242,98,33);fill-rule:nonzero;"/>
                </g>
                <g transform="matrix(1,0,0,1,1234.89,912.389)">
                    <path d="M0,42.269C-1.151,25.981 -2.27,9.691 -3.364,-6.601C-5.404,9.687 -7.494,25.969 -9.62,42.247C-5.772,42.262 -3.849,42.267 0,42.269M-37.511,81.168C-28.223,40.984 -21.151,0.498 -15.799,-40.393C-6.637,-43.366 2.541,-46.296 11.738,-49.159C14.261,-5.081 20.068,38.737 26.9,82.329C18.048,85.549 13.607,87.101 4.7,90.029C3.778,80.677 3.323,76.012 2.423,66.708C-3.315,67.531 -6.187,67.922 -11.934,68.657C-13.251,77.794 -13.914,82.349 -15.25,91.428C-24.193,87.327 -28.646,85.262 -37.511,81.168" style="fill:rgb(242,98,33);fill-rule:nonzero;"/>
                </g>
                <g transform="matrix(1,0,0,1,1316.23,998.453)">
                    <path d="M0,-127.964C8.395,-130.328 12.58,-131.467 20.927,-133.616C19.732,-101.66 19.003,-69.693 19.68,-37.714C28.758,-39.862 33.286,-40.95 42.318,-43.115C43.297,-31.617 44.283,-20.119 45.277,-8.622C29.924,-6.334 15.027,-0.39 0.845,5.652C0.562,-38.887 0.28,-83.425 0,-127.964" style="fill:rgb(242,98,33);fill-rule:nonzero;"/>
                </g>
                <g transform="matrix(1,0,0,1,1394.26,916.734)">
                    <path d="M0,37.345C-2.258,21.392 -4.46,5.431 -6.625,-10.535C-7.587,5.584 -8.581,21.7 -9.598,37.816C-5.757,37.632 -3.837,37.538 0,37.345M-34.757,80.492C-28.525,38.537 -24.055,-3.521 -21.393,-45.853C-10.526,-47.807 -5.113,-48.677 5.667,-50.122C10.943,-8.8 19.385,32.028 29.386,72.444C20.81,76.581 16.501,78.68 7.846,82.876C6.312,74.085 5.55,69.67 4.038,60.802C-1.619,62.202 -4.451,62.901 -10.127,64.284C-10.823,73.532 -11.177,78.168 -11.893,87.467C-21.063,84.856 -25.637,83.449 -34.757,80.492" style="fill:rgb(242,98,33);fill-rule:nonzero;"/>
                </g>
                <g transform="matrix(1,0,0,1,1420.66,878.609)">
                    <path d="M0,116.111C5.448,77.477 7.826,38.603 8.756,-0.38C16.222,-1.999 19.938,-2.725 27.34,-3.966C30.571,15.274 33.911,34.496 37.353,53.699C37.697,35.811 38.01,17.924 38.288,0.036C45.427,0.302 48.987,0.493 56.09,1.001C62.518,35.714 71.226,69.618 83.002,102.906C74.813,106.721 70.698,108.682 62.429,112.663C58.148,94.569 54.005,76.448 49.979,58.296C49.917,76.141 49.822,93.986 49.696,111.831C42.762,113.819 39.286,114.804 32.32,116.746C29.253,96.158 26.252,75.562 23.314,54.956C22.624,76.665 21.888,98.372 21.109,120.077C12.65,118.69 8.429,117.888 0,116.111" style="fill:rgb(242,98,33);fill-rule:nonzero;"/>
                </g>
                <g transform="matrix(1,0,0,1,1517.47,940.277)">
                    <path d="M0,-9.411C4.524,-9.459 7.975,-11.183 10.356,-14.096C12.103,-16.229 12.91,-19.107 12.827,-22.564C12.724,-26.925 10.948,-30.133 7.371,-32.119C4.552,-33.684 0.923,-34.021 -3.528,-32.721C-2.12,-23.376 -1.414,-18.714 0,-9.411M-17.559,-3.312C-19.281,-19.916 -20.235,-37.267 -24.375,-53.526C-15.712,-55.026 -4.722,-54.642 3.711,-51.924C10.897,-49.608 16.628,-45.886 20.8,-41.41C25.32,-36.561 28.505,-30.584 29.962,-23.102C31.102,-17.254 30.878,-11.894 28.979,-7.195C27.387,-3.255 24.335,0.409 20.584,3.674C16.147,7.534 10.447,10.8 3.529,12.8C4.015,18.827 5.427,27.47 7.799,38.478C-0.474,41.324 -4.626,42.757 -12.956,45.615C-14.103,29.276 -15.869,12.975 -17.559,-3.312" style="fill:rgb(242,98,33);fill-rule:nonzero;"/>
                </g>
            </g>
            <g transform="matrix(1,0,0,1,-195.14,145.703)">
                <g transform="matrix(-0.591107,-0.806593,-0.806593,0.591107,1273.04,358.917)">
                    <path d="M-3.272,-26.913C-7.789,-29.075 -21.364,-20.015 -19.753,-10.531C-18.456,-2.892 -7.726,2.538 -3.272,-0.066C0.007,-1.983 -0.254,-8.175 -0.556,-15.378C-0.826,-21.792 -0.996,-25.823 -3.272,-26.913" style="fill:rgb(242,98,33);fill-rule:nonzero;"/>
                </g>
                <g transform="matrix(1,0,0,1,1363.55,434.184)">
                    <path d="M0,145.198C1.161,154.043 -42.908,170.469 -86.534,175.2C-129.828,179.895 -144.629,170.03 -159.494,170.82C-160.52,170.874 -165.29,171.178 -166.374,168.981C-167.228,167.251 -165.574,164.423 -165.135,163.671C-164.137,161.964 -162.972,160.988 -162.655,160.695C-158.432,156.783 -165.484,144.772 -162.655,135.28C-160.498,128.041 -152.582,122.233 -148.274,123.627C-142.334,125.548 -144.491,140.76 -140.588,141.479C-138.242,141.912 -134.351,136.994 -125.711,114.453C-116.979,91.67 -112.313,74.135 -111.825,72.301C-105.278,47.681 -102.004,35.372 -102.403,26.844C-103.669,-0.182 -118.917,-10.383 -112.321,-21.424C-106.478,-31.207 -87.638,-34.697 -79.592,-27.871C-77.431,-26.037 -73.318,-21.143 -81.575,32.133C-84.441,50.621 -85.823,55.759 -85.543,66.846C-85.455,70.298 -84.832,86.957 -76.286,105.526C-69.292,120.723 -63.372,123.328 -60.252,124.123C-59.096,124.417 -53.771,125.772 -50.057,123.001C-46.508,120.351 -47.956,116.563 -43.888,111.973C-43.32,111.333 -38.799,106.233 -34.217,107.261C-30.391,108.122 -28.523,112.807 -27.274,115.94C-25.447,120.526 -25.679,123.63 -25.291,125.858C-23.212,137.811 -0.806,139.063 0,145.198" style="fill:rgb(242,98,33);fill-rule:nonzero;"/>
                </g>
                <g transform="matrix(1,0,0,1,1323.79,479.196)">
                    <path d="M0,-4.449C0.472,2.767 3.744,3.59 4.133,10.759C4.349,14.74 3.796,22.904 0.331,24.148C-5.682,26.307 -23.534,8.737 -21.323,-8.912C-19.932,-20.027 -10.634,-30.756 -5.124,-29.574C-1.322,-28.759 0.729,-22.26 1.322,-18.995C2.453,-12.778 -0.455,-11.413 0,-4.449" style="fill:rgb(242,98,33);fill-rule:nonzero;"/>
                </g>
                <g transform="matrix(1,0,0,1,1233.76,477.312)">
                    <path d="M0,7.243C1.7,21.36 6.411,28.241 3.585,30.33C0.668,32.487 -7.739,27.66 -12.561,21.354C-21.483,9.683 -19.395,-8.779 -10.254,-18.843C-9.461,-19.716 -4.439,-25.244 -1.28,-23.917C2.745,-22.225 -2.155,-10.655 0,7.243" style="fill:rgb(242,98,33);fill-rule:nonzero;"/>
                </g>
                <g transform="matrix(1,0,0,1,1324.29,405.211)">
                    <path d="M0,7.218C-0.296,10.216 -1.14,18.764 -4.629,19.45C-8.453,20.202 -13.071,11.032 -13.566,10.048C-15.552,6.106 -16.04,2.695 -16.365,0.276C-17.045,-4.791 -17.418,-7.566 -15.703,-9.642C-13.285,-12.572 -7.646,-12.984 -4.133,-10.8C1.437,-7.337 0.521,1.94 0,7.218" style="fill:rgb(242,98,33);fill-rule:nonzero;"/>
                </g>
                <g transform="matrix(-0.610623,-0.791922,-0.791922,0.610623,1245.87,390.565)">
                    <path d="M-2.264,-17.752C-6.612,-17.884 -12.119,-0.043 -8.843,2.14C-7.072,3.32 -2.724,-0.069 -2.264,-0.427C-1.401,-1.101 0.974,-2.952 1.891,-6.137C3.389,-11.34 0.294,-17.675 -2.264,-17.752" style="fill:rgb(242,98,33);fill-rule:nonzero;"/>
                </g>
                <g transform="matrix(1,0,0,1,1324.29,303.676)">
                    <path d="M0,17.673C-6.289,20.561 -10.109,15.989 -16.199,18.995C-22.518,22.114 -21.96,28.789 -27.109,29.74C-31.091,30.475 -34.774,27.104 -37.854,24.285C-44.073,18.592 -46.223,11.689 -47.938,5.937C-50.104,-1.335 -52.158,-8.227 -49.59,-10.098C-45.876,-12.802 -38.412,-0.694 -22.646,3.292C-6.276,7.43 5.872,-0.516 8.431,4.118C10.271,7.453 5.866,14.979 0,17.673" style="fill:rgb(242,98,33);fill-rule:nonzero;"/>
                </g>
                <g transform="matrix(1,0,0,1,1404.21,305.355)">
                    <path d="M0,469.349C-12.542,481.465 -34.065,499.271 -65.211,512.307C-99.227,526.544 -129.522,528.732 -147.53,528.671C-146.249,511.118 -145.043,496.155 -144.06,484.453C-141.599,455.193 -141.559,458.623 -140.753,447.757C-140.753,447.757 -139.504,430.903 -138.521,426.268C-138.125,424.398 -138.064,423.671 -137.943,422.218C-137.843,421.015 -137.954,421.437 -137.86,420.152C-137.806,419.394 -137.743,418.924 -137.943,418.333C-138.106,417.853 -138.36,417.538 -138.459,417.415C-140.176,415.276 -141.585,412.878 -143.48,410.895C-143.886,410.471 -145.824,408.174 -149.7,403.58C-149.7,403.58 -152.391,400.392 -156.829,394.531C-169.986,377.153 -182.243,356.594 -182.243,356.594C-200.181,326.51 -209.148,311.469 -212.824,294.524C-215.172,283.699 -215.466,275.37 -215.8,265.927C-216.651,241.799 -213.32,223.097 -210.18,207.411C-203.255,172.833 -197.089,141.748 -181.417,97.321C-174.226,76.933 -167.696,61.579 -154.639,30.871C-138.636,-6.764 -124.512,-37.633 -114.306,-59.383C-96.232,-53.322 -78.16,-47.261 -60.087,-41.2C-62.249,-26.862 -64.848,-5.653 -65.707,20.126C-66.845,54.236 -63.325,83.53 -56.285,142.118C-46.542,223.2 -35.203,274.466 -34.961,275.184C-34.949,275.22 -34.797,275.628 -34.755,276.197C-34.755,276.197 -34.72,276.666 -34.796,277.147C-38.286,299.155 -61.079,366.76 -61.079,366.76C-64.224,376.089 -65.325,380.524 -67.69,386.927C-69.294,391.267 -70.422,395.769 -71.844,400.171C-71.878,400.276 -71.982,400.601 -72.066,401.047C-72.066,401.047 -72.244,402.007 -72.154,403.023C-72.055,404.133 -41.752,431.919 0,469.349Z" style="fill:none;fill-rule:nonzero;stroke:rgb(179,179,179);stroke-width:5.32px;"/>
                </g>
                <g transform="matrix(-0.462573,0.886581,0.886581,0.462573,1328.45,270.536)">
                    <path d="M40.951,-42.611C42.32,-38.524 43.899,-32.196 43.742,-24.374C43.606,-17.624 42.224,-12.105 40.951,-8.305C39.348,-3.501 37.288,1.8 34.618,7.408C31.5,13.956 28.173,19.619 25.009,24.395" style="fill:none;fill-rule:nonzero;stroke:rgb(179,179,179);stroke-width:5.32px;"/>
                </g>
                <g transform="matrix(-0.328853,-0.944381,-0.944381,0.328853,1238.41,521.604)">
                    <path d="M-98.488,-101.107C-100.287,-88.372 -101.577,-73.623 -101.589,-57.231C-101.601,-40.647 -100.304,-25.738 -98.488,-12.888C-95.8,-1.167 -92.051,11.992 -86.754,26.085C-80.604,42.446 -73.69,56.553 -67.057,68.323" style="fill:none;fill-rule:nonzero;stroke:rgb(179,179,179);stroke-width:5.32px;"/>
                </g>
            </g>
        </g>
    </g>
</svg>
